<svg fill="none" height="22" viewBox="0 0 24 22" width="24" xmlns="http://www.w3.org/2000/svg"><path clip-rule="evenodd" d="m18.256 4.37128c.046.08041.1265.13785.23.13785 2.76 0 5.014 2.25149 5.014 5.00843v6.82344c0 2.7569-2.254 5.0084-5.014 5.0084h-12.972c-2.7715 0-5.014-2.2515-5.014-5.0084v-6.82344c0-2.75694 2.2425-5.00843 5.014-5.00843.092 0 .184-.04595.2185-.13785l.069-.13785c.03964-.08344.08034-.16915.12164-.25616.2942-.61967.61968-1.30524.82136-1.70816.529-1.03385 1.426-1.608209 2.5415-1.619696h5.4165c1.1155.011487 2.024.585846 2.553 1.619696.1811.36183.457.94466.723 1.50641.0549.11596.1094.23101.1625.34304zm-.8395 4.41102c0 .57436.46 1.03385 1.035 1.03385s1.0465-.45949 1.0465-1.03385-.4715-1.04534-1.0465-1.04534-1.035.47098-1.035 1.04534zm-7.4059 1.7808c.5405-.5399 1.242-.82711 1.9895-.82711s1.449.28721 1.978.81561.8165 1.2291.8165 1.9758c-.0115 1.5393-1.2535 2.7914-2.7945 2.7914-.7475 0-1.449-.2872-1.978-.8156-.52897-.5284-.81647-1.2291-.81647-1.9758v-.0115c-.0115-.7237.276-1.4244.80497-1.9528zm5.1749 5.1575c-.8165.8156-1.9435 1.321-3.1855 1.321-1.2075 0-2.3345-.4709-3.197-1.321-.851-.8615-1.3225-1.9873-1.3225-3.1934-.0115-1.1947.46-2.3205 1.311-3.18201.8625-.86154 2.001-1.33252 3.2085-1.33252s2.346.47098 3.197 1.32103c.851.8615 1.3225 1.9988 1.3225 3.1935-.0115 1.2521-.5175 2.3778-1.334 3.1934z" fill="#fff" fill-rule="evenodd"/></svg>