<?xml version="1.0" standalone="no"?>
<!DOCTYPE svg PUBLIC "-//W3C//DTD SVG 20010904//EN"
 "http://www.w3.org/TR/2001/REC-SVG-20010904/DTD/svg10.dtd">
<svg version="1.0" xmlns="http://www.w3.org/2000/svg"
 width="656.000000pt" height="656.000000pt" viewBox="0 0 656.000000 656.000000"
 preserveAspectRatio="xMidYMid meet">

<g transform="translate(0.000000,656.000000) scale(0.100000,-0.100000)"
fill="#000000" stroke="none">
<path d="M3278 6527 c-124 -52 -221 -171 -364 -442 -157 -299 -224 -545 -224
-822 0 -194 37 -371 129 -611 84 -223 87 -257 34 -388 -21 -51 -45 -87 -97
-141 -38 -40 -66 -73 -63 -73 15 0 129 74 157 101 34 35 46 33 36 -6 -13 -53
-121 -132 -230 -169 -35 -12 -2 -27 71 -33 85 -7 193 11 228 39 14 11 30 18
36 16 6 -2 -41 -55 -105 -118 -64 -63 -119 -125 -123 -138 -7 -30 -32 -42 -90
-42 -72 0 -180 -26 -229 -55 -159 -93 -351 -392 -409 -635 -25 -102 -61 -198
-93 -240 -14 -19 -69 -91 -122 -160 -273 -353 -370 -560 -370 -796 0 -40 -7
-103 -16 -141 -9 -37 -13 -84 -10 -103 10 -65 64 -212 87 -236 27 -29 84 -32
166 -8 49 14 62 14 147 0 128 -22 187 -20 303 9 92 23 303 96 378 130 17 8 80
36 142 63 l112 48 -37 20 c-129 68 -303 185 -422 283 l-84 70 -126 -1 c-116
-1 -129 1 -175 24 -86 44 -107 70 -25 30 l75 -36 134 2 134 1 61 -47 c157
-123 351 -247 486 -310 237 -110 400 -162 594 -187 116 -15 148 -13 114 6 -29
16 -78 60 -78 70 0 6 15 -1 33 -14 84 -63 140 -75 228 -47 119 39 170 80 359
291 96 108 207 230 245 270 165 174 357 444 432 606 23 51 56 97 102 146 88
94 124 149 146 222 10 33 21 69 26 80 18 47 8 -36 -11 -87 -11 -28 -18 -54
-16 -56 7 -7 49 46 89 111 71 117 113 299 104 461 -6 126 -32 203 -101 305
-95 140 -239 224 -437 256 -67 11 -99 20 -114 35 l-20 21 53 -20 c28 -11 52
-16 52 -11 0 6 -17 32 -38 59 -21 26 -54 78 -73 114 -31 62 -33 68 -21 99 97
242 146 573 123 824 -15 163 -29 211 -127 422 -96 208 -185 414 -209 487 -69
202 -368 455 -512 432 -49 -8 -79 -40 -105 -109 -19 -54 -47 -95 -35 -52 20
68 28 108 23 121 -3 7 -36 28 -73 46 -92 43 -175 47 -255 14z m852 -1862 c36
-243 138 -432 289 -533 44 -29 51 -37 38 -46 -128 -90 -156 -112 -157 -118 0
-3 15 -2 33 2 81 23 206 39 233 30 16 -4 27 -9 24 -9 -3 -1 -63 -11 -135 -22
-71 -11 -145 -23 -162 -26 -66 -11 -312 -258 -416 -418 -24 -39 -59 -97 -76
-131 -39 -77 -81 -234 -81 -303 0 -62 20 -171 31 -171 4 0 51 52 104 116 l96
117 -30 31 c-30 31 -68 112 -58 122 3 3 15 -12 26 -34 22 -43 67 -85 85 -79
12 4 40 69 87 204 18 50 36 90 40 88 11 -8 -60 -246 -92 -309 -17 -32 -70
-109 -118 -170 -270 -347 -421 -606 -421 -725 l0 -51 -77 8 c-138 13 -361 7
-466 -11 -88 -16 -103 -17 -156 -3 -32 8 -91 30 -132 49 -195 91 -232 106
-295 122 -94 23 -120 16 -216 -64 -83 -68 -151 -147 -201 -231 -31 -52 -34
-48 -10 12 26 67 69 126 155 214 l80 81 -30 84 c-53 150 -65 291 -34 410 44
165 195 322 412 426 47 23 144 69 215 103 119 58 137 70 216 149 74 74 189
221 189 241 0 3 -75 -15 -167 -42 -93 -26 -172 -48 -178 -48 -21 1 108 49 277
104 127 41 192 68 239 99 59 39 64 45 67 82 5 55 -13 197 -49 405 -27 151 -36
183 -65 230 -43 70 -86 177 -81 199 4 12 7 10 13 -9 16 -51 83 -170 129 -229
26 -34 73 -78 104 -99 55 -36 58 -37 146 -36 107 0 165 24 256 101 119 102
249 280 249 341 0 10 7 27 15 38 8 10 15 33 15 49 0 17 4 41 8 55 4 15 10 -46
14 -145 4 -93 12 -206 18 -250z m331 131 c11 -119 9 -186 -12 -322 -12 -76
-23 -103 -36 -90 -10 10 -8 484 3 576 l7 65 13 -55 c7 -30 18 -109 25 -174z"/>
<path d="M4057 4842 c-28 -71 -88 -154 -176 -245 -68 -70 -100 -95 -160 -124
-102 -49 -191 -56 -271 -20 -30 14 -64 33 -75 44 -11 10 -29 25 -39 33 -18 14
-19 13 -12 -20 20 -102 46 -359 46 -457 l0 -112 -43 -26 c-42 -24 -77 -61
-141 -149 -70 -97 -213 -229 -326 -304 -192 -127 -288 -233 -337 -374 -38
-109 -40 -167 -9 -265 34 -107 107 -213 209 -308 82 -76 105 -86 85 -37 -18
46 -15 287 5 362 56 206 143 305 402 454 418 242 740 482 999 745 l118 120
-39 48 c-112 136 -202 397 -203 588 0 81 -13 98 -33 47z m-659 -1164 c-29 -29
-75 -90 -101 -135 -26 -45 -53 -85 -58 -89 -16 -9 61 130 101 183 29 39 91 93
107 93 2 0 -20 -24 -49 -52z"/>
<path d="M4920 2854 c0 -5 -32 -45 -71 -89 -48 -55 -87 -113 -123 -185 -84
-166 -164 -292 -278 -436 -26 -34 -48 -64 -48 -67 0 -5 170 38 174 45 90 125
198 313 248 433 44 105 110 297 103 303 -3 3 -5 1 -5 -4z"/>
<path d="M4122 1773 c-110 -125 -217 -244 -238 -265 -79 -75 -184 -117 -356
-143 -41 -6 -43 -10 -54 -105 -11 -106 -122 -461 -154 -494 -5 -5 0 20 11 55
63 203 104 388 111 499 l3 45 -128 21 c-70 12 -140 27 -155 32 -15 6 -54 18
-87 27 -33 9 -111 39 -174 67 l-115 49 -118 -58 c-104 -50 -118 -60 -113 -78
24 -79 27 -159 12 -297 -9 -79 -19 -176 -23 -215 -4 -40 -11 -73 -17 -73 -6 0
-7 23 -3 63 3 34 9 139 12 232 7 174 -3 271 -30 281 -7 3 -33 -4 -58 -16 l-45
-20 -6 -127 c-3 -87 -12 -152 -26 -203 -62 -216 -65 -337 -11 -477 34 -89 33
-114 -8 -185 -15 -25 -14 -29 3 -48 32 -35 280 -200 301 -200 2 0 27 -11 56
-25 121 -56 309 -95 460 -95 110 0 344 36 473 74 195 56 395 145 572 256 79
50 303 217 303 226 0 2 -16 28 -35 58 -55 86 -151 287 -196 412 l-42 115 -34
-68 c-52 -104 -105 -166 -206 -244 -112 -86 -189 -159 -229 -217 -17 -24 -32
-41 -35 -38 -3 3 17 38 43 78 34 51 82 101 159 167 61 52 130 120 154 150 59
76 123 212 127 276 10 118 89 405 156 562 l39 92 -42 38 c-23 21 -45 39 -49
41 -4 2 -98 -100 -208 -225z m-1194 -790 c3 -17 -3 -24 -22 -29 -34 -8 -66 4
-66 26 0 22 15 30 55 27 23 -2 31 -7 33 -24z"/>
</g>
</svg>
