<svg fill="none" height="20" viewBox="0 0 20 20" width="20" xmlns="http://www.w3.org/2000/svg"><path d="m7.13478 18.7733v-3.0577c0-.7805.63739-1.4133 1.42366-1.4133h2.87416c.3776 0 .7397.1489 1.0067.414.267.265.417.6245.417.9993v3.0577c-.0024.3245.1258.6366.3561.8669s.5437.3598.8705.3598h1.9609c.9158.0023 1.795-.3572 2.4434-.9992s1.0128-1.5138 1.0128-2.423v-8.71094c0-.7344-.3279-1.43102-.8954-1.90219l-6.6706-5.288801c-1.1603-.927307-2.82289-.897367-3.94861.07111l-6.51838 5.217691c-.594269.45728-.949458 1.15597-.96701 1.90219v8.70204c0 1.895 1.54738 3.4311 3.45617 3.4311h1.91612c.67894 0 1.23071-.5438 1.23563-1.2178z" fill="#fff"/></svg>