<?xml version="1.0" standalone="no"?>
<!DOCTYPE svg PUBLIC "-//W3C//DTD SVG 20010904//EN"
 "http://www.w3.org/TR/2001/REC-SVG-20010904/DTD/svg10.dtd">
<svg version="1.0" xmlns="http://www.w3.org/2000/svg"
 width="656.000000pt" height="656.000000pt" viewBox="0 0 656.000000 656.000000"
 preserveAspectRatio="xMidYMid meet">

<g transform="translate(0.000000,656.000000) scale(0.100000,-0.100000)"
fill="#000000" stroke="none">
<path d="M3355 6543 c-11 -3 -46 -14 -77 -24 -32 -10 -84 -19 -115 -19 -114 0
-130 -48 -61 -187 6 -11 8 -27 6 -33 -2 -7 -23 26 -45 73 -32 65 -50 90 -74
102 -62 33 -154 -9 -252 -114 -52 -56 -54 -61 -89 -197 -20 -76 -42 -167 -49
-202 -11 -59 -10 -64 9 -85 32 -34 53 -97 32 -97 -5 0 -10 8 -10 19 0 23 -57
81 -80 81 -25 0 -81 -60 -106 -115 -35 -75 -47 -176 -35 -284 11 -98 27 -138
67 -170 29 -23 83 -28 115 -10 11 6 25 9 32 6 17 -5 -64 -57 -89 -57 -25 0
-25 3 -49 -205 -30 -256 -63 -445 -73 -416 -3 8 1 53 7 100 20 150 22 171 16
171 -3 0 -14 -19 -24 -43 -23 -54 -62 -100 -115 -136 -64 -44 -253 -141 -431
-221 -344 -154 -420 -199 -475 -286 -33 -53 -85 -172 -78 -179 3 -3 31 1 63
10 32 8 60 13 62 11 2 -1 -25 -15 -60 -30 -101 -43 -158 -100 -201 -201 -44
-107 -125 -425 -133 -525 -10 -130 22 -301 78 -412 10 -20 49 -72 85 -115 82
-96 99 -135 107 -243 7 -100 17 -131 98 -293 90 -179 152 -288 242 -421 43
-66 113 -185 154 -265 108 -211 229 -377 335 -459 82 -64 216 -141 334 -192
77 -33 143 -51 294 -81 153 -31 210 -47 267 -75 75 -38 140 -98 176 -165 l19
-34 -27 30 c-134 150 -162 164 -420 200 -237 34 -422 97 -585 200 -49 31 -52
31 -40 -1 21 -54 12 -152 -25 -262 -28 -82 -33 -107 -23 -114 97 -64 432 -234
613 -310 663 -282 1214 -329 1519 -128 39 26 84 59 100 74 26 25 28 31 22 78
-10 76 -28 118 -74 179 -62 83 -72 120 -70 267 1 96 -3 141 -16 187 -22 74
-94 218 -173 347 -33 53 -67 125 -77 160 -10 34 -22 74 -26 88 -4 15 -14 25
-26 25 -45 0 -23 -169 43 -328 68 -167 95 -246 91 -270 -3 -16 -7 -11 -17 23
-7 25 -39 101 -71 170 -70 149 -106 254 -115 334 -8 60 -30 96 -60 96 -9 0
-32 -10 -53 -23 -131 -81 -240 -95 -377 -49 -62 22 -209 52 -251 52 -23 0 -24
-2 -24 -87 0 -144 53 -315 150 -487 27 -49 50 -91 50 -93 0 -10 -62 70 -101
132 -107 167 -164 332 -171 495 l-3 55 -67 21 c-107 35 -213 97 -398 235 -190
142 -302 213 -400 255 -126 53 -231 144 -315 269 -41 63 -120 214 -152 293
l-22 53 -37 -20 c-62 -33 -116 -36 -195 -12 -38 13 -69 24 -69 27 0 2 33 1 73
-2 76 -7 138 5 172 31 19 14 17 18 -60 87 -219 197 -281 300 -290 478 l-4 75
14 -65 c39 -188 126 -314 309 -449 86 -64 139 -130 209 -263 128 -242 218
-333 426 -435 212 -103 301 -162 516 -341 170 -142 334 -205 535 -206 96 -1
109 1 150 26 25 14 64 45 88 69 23 23 42 36 42 29 0 -7 -34 -46 -76 -87 -41
-41 -73 -77 -71 -79 3 -3 45 -5 94 -6 80 -1 97 2 154 29 35 16 93 54 129 84
122 101 338 333 567 609 67 80 128 152 137 159 27 22 19 36 -54 97 -113 94
-186 134 -245 134 -76 0 -167 -29 -329 -105 -56 -26 -61 -27 -115 -15 -31 6
-148 42 -261 80 -113 37 -219 71 -235 74 -22 5 -43 24 -77 69 -77 104 -248
287 -296 318 -47 30 -130 58 -233 80 -43 9 -72 9 -124 0 -37 -7 -69 -10 -72
-8 -9 10 66 29 135 34 l74 6 -26 24 c-26 24 -72 151 -64 175 3 7 13 -13 23
-46 29 -92 50 -116 127 -141 178 -60 249 -111 432 -313 97 -105 126 -132 153
-137 19 -3 40 -8 47 -11 20 -8 73 83 91 155 25 95 4 213 -80 465 -25 76 -44
140 -42 142 6 6 89 -176 130 -287 53 -142 73 -255 60 -336 -7 -36 -23 -88 -36
-115 l-25 -50 33 -13 c64 -27 271 -86 305 -87 23 -1 66 14 125 43 89 43 90 45
122 109 43 88 73 213 73 307 0 151 -51 346 -122 466 -36 61 -30 73 10 18 104
-143 152 -298 158 -506 5 -163 5 -163 44 -249 25 -52 38 -69 64 -80 75 -31
225 -146 274 -211 20 -25 26 -27 40 -17 111 81 332 125 437 87 l40 -14 -65 6
c-82 7 -199 -17 -298 -63 -95 -43 -167 -113 -295 -284 -158 -212 -261 -334
-403 -478 -72 -73 -129 -134 -125 -136 18 -10 333 -81 501 -112 245 -45 346
-52 465 -30 196 37 389 101 485 161 24 15 54 25 77 25 46 0 97 29 117 67 29
57 46 179 46 327 0 178 -10 210 -115 365 -75 112 -72 107 -160 396 -61 201
-134 301 -335 460 -133 105 -170 156 -170 234 0 53 -32 147 -72 216 -50 85
-213 250 -313 316 -116 77 -149 89 -97 37 37 -40 78 -127 87 -191 8 -54 -9
-66 -20 -14 -57 259 -450 412 -804 311 -29 -8 -56 -13 -59 -10 -6 6 119 65
153 72 11 3 36 8 55 13 l35 8 -50 23 c-69 31 -185 70 -207 70 -10 0 -37 -14
-60 -30 -45 -33 -124 -60 -174 -60 -48 0 -182 45 -234 78 -62 39 -159 146
-193 212 l-28 55 33 -40 c120 -146 204 -207 328 -240 126 -34 178 -14 348 135
120 104 151 147 207 285 21 50 56 126 80 170 54 102 63 130 74 240 12 113 36
186 120 354 l66 134 -1 141 c-2 161 -17 240 -67 349 -22 47 -50 87 -80 115
-26 23 -55 59 -66 80 -32 61 -80 98 -206 156 -120 56 -170 66 -240 49z m-1205
-2389 c98 -19 172 -27 270 -29 176 -3 207 -15 500 -183 52 -30 128 -77 168
-103 l72 -49 21 46 c15 32 33 51 60 64 51 26 85 27 43 1 -59 -36 -94 -127 -62
-159 22 -22 -1 -24 -24 -2 -13 12 -41 32 -63 44 -22 13 -114 66 -205 118 -284
162 -354 188 -509 188 -99 0 -143 6 -411 57 -47 8 -122 15 -168 15 -46 0 -82
2 -80 4 2 2 22 8 44 13 58 15 192 5 344 -25z m2525 -949 c63 -21 84 -40 35
-32 -217 36 -286 33 -333 -15 -28 -27 -29 -33 -24 -85 5 -48 4 -53 -7 -37 -51
72 -18 155 73 185 39 13 200 3 256 -16z m-885 -2156 c0 -35 -22 -39 -44 -7
-17 23 -21 69 -9 82 13 13 53 -44 53 -75z"/>
</g>
</svg>
