<svg fill="none" height="20" viewBox="0 0 18 20" width="18" xmlns="http://www.w3.org/2000/svg"><path clip-rule="evenodd" d="m15.7071 6.79633c0 1.25593.3319 1.9962 1.0624 2.84926.5536.62851.7305 1.43521.7305 2.31041 0 .8742-.2872 1.7041-.8627 2.3779-.7533.8078-1.8158 1.3234-2.9001 1.4131-1.5713.1339-3.1435.2467-4.7367.2467-1.59416 0-3.16545-.0674-4.73675-.2467-1.08529-.0897-2.14773-.6053-2.90008-1.4131-.57545-.6738-.86367-1.5037-.86367-2.3779 0-.8752.177901-1.6819.73049-2.31041.75335-.85306 1.06343-1.59333 1.06343-2.84926v-.42603c0-1.68196.41941-2.78178 1.28308-3.85844 1.28406-1.570163 3.34235-2.51186 5.37877-2.51186h.08945c2.08018 0 4.20498.987019 5.46728 2.62466.8189 1.0545 1.1946 2.10799 1.1946 3.74564zm-9.63343 11.26447c0-.5035.46215-.7342.88951-.8329.49991-.1057 3.54612-.1057 4.04602 0 .4274.0987.8895.3294.8895.8329-.0249.4794-.3061.9045-.6947 1.1744-.5039.3928-1.0952.6415-1.71343.7312-.34189.0443-.67781.0453-1.00778 0-.61917-.0897-1.21052-.3384-1.71341-.7322-.3896-.2689-.67086-.694-.69571-1.1734z" fill="#fff" fill-rule="evenodd"/></svg>